<mxfile host="app.diagrams.net" modified="2023-09-30T03:18:27.903Z" agent="Mozilla/5.0 (Windows NT 10.0; Win64; x64) AppleWebKit/537.36 (KHTML, like Gecko) Chrome/116.0.0.0 Safari/537.36" etag="gxS9fSbR11_ZcOD-vX-c" version="21.7.4" type="github">
  <diagram name="PÃ¡gina-1" id="NflpMElrKxJvtwU4ogu0">
    <mxGraphModel dx="778" dy="396" grid="1" gridSize="10" guides="1" tooltips="1" connect="1" arrows="1" fold="1" page="1" pageScale="1" pageWidth="827" pageHeight="1169" math="0" shadow="0">
      <root>
        <mxCell id="0" />
        <mxCell id="1" parent="0" />
        <mxCell id="x2XNO0fujcrcdqt8F9UM-2" value="shared" style="rounded=1;whiteSpace=wrap;html=1;labelBackgroundColor=none;fillColor=#FAE5C7;strokeColor=#0F8B8D;fontColor=#143642;" vertex="1" parent="1">
          <mxGeometry x="390" y="250" width="120" height="60" as="geometry" />
        </mxCell>
        <mxCell id="x2XNO0fujcrcdqt8F9UM-7" style="rounded=0;orthogonalLoop=1;jettySize=auto;html=1;entryX=0;entryY=0.5;entryDx=0;entryDy=0;labelBackgroundColor=none;strokeColor=#A8201A;fontColor=default;" edge="1" parent="1" source="x2XNO0fujcrcdqt8F9UM-3" target="x2XNO0fujcrcdqt8F9UM-2">
          <mxGeometry relative="1" as="geometry" />
        </mxCell>
        <mxCell id="x2XNO0fujcrcdqt8F9UM-16" value="lock" style="edgeLabel;html=1;align=center;verticalAlign=middle;resizable=0;points=[];fontColor=#143642;" vertex="1" connectable="0" parent="x2XNO0fujcrcdqt8F9UM-7">
          <mxGeometry x="-0.0526" y="1" relative="1" as="geometry">
            <mxPoint as="offset" />
          </mxGeometry>
        </mxCell>
        <mxCell id="x2XNO0fujcrcdqt8F9UM-3" value="T1" style="rounded=1;whiteSpace=wrap;html=1;labelBackgroundColor=none;fillColor=#FAE5C7;strokeColor=#0F8B8D;fontColor=#143642;" vertex="1" parent="1">
          <mxGeometry x="210" y="450" width="120" height="60" as="geometry" />
        </mxCell>
        <mxCell id="x2XNO0fujcrcdqt8F9UM-8" style="edgeStyle=orthogonalEdgeStyle;rounded=0;orthogonalLoop=1;jettySize=auto;html=1;labelBackgroundColor=none;strokeColor=#A8201A;fontColor=default;" edge="1" parent="1" source="x2XNO0fujcrcdqt8F9UM-4" target="x2XNO0fujcrcdqt8F9UM-2">
          <mxGeometry relative="1" as="geometry" />
        </mxCell>
        <mxCell id="x2XNO0fujcrcdqt8F9UM-14" value="lock" style="edgeLabel;html=1;align=center;verticalAlign=middle;resizable=0;points=[];fontColor=#143642;" vertex="1" connectable="0" parent="x2XNO0fujcrcdqt8F9UM-8">
          <mxGeometry x="-0.2405" y="1" relative="1" as="geometry">
            <mxPoint x="1" y="-27" as="offset" />
          </mxGeometry>
        </mxCell>
        <mxCell id="x2XNO0fujcrcdqt8F9UM-4" value="T1" style="rounded=1;whiteSpace=wrap;html=1;labelBackgroundColor=none;fillColor=#FAE5C7;strokeColor=#0F8B8D;fontColor=#143642;" vertex="1" parent="1">
          <mxGeometry x="390" y="450" width="120" height="60" as="geometry" />
        </mxCell>
        <mxCell id="x2XNO0fujcrcdqt8F9UM-9" style="rounded=0;orthogonalLoop=1;jettySize=auto;html=1;entryX=1;entryY=0.5;entryDx=0;entryDy=0;labelBackgroundColor=none;strokeColor=#A8201A;fontColor=default;" edge="1" parent="1" source="x2XNO0fujcrcdqt8F9UM-5" target="x2XNO0fujcrcdqt8F9UM-2">
          <mxGeometry relative="1" as="geometry">
            <Array as="points">
              <mxPoint x="560" y="370" />
            </Array>
          </mxGeometry>
        </mxCell>
        <mxCell id="x2XNO0fujcrcdqt8F9UM-15" value="lock" style="edgeLabel;html=1;align=center;verticalAlign=middle;resizable=0;points=[];fontColor=#143642;" vertex="1" connectable="0" parent="x2XNO0fujcrcdqt8F9UM-9">
          <mxGeometry x="0.0802" relative="1" as="geometry">
            <mxPoint as="offset" />
          </mxGeometry>
        </mxCell>
        <mxCell id="x2XNO0fujcrcdqt8F9UM-5" value="T1" style="rounded=1;whiteSpace=wrap;html=1;labelBackgroundColor=none;fillColor=#FAE5C7;strokeColor=#0F8B8D;fontColor=#143642;" vertex="1" parent="1">
          <mxGeometry x="570" y="450" width="120" height="60" as="geometry" />
        </mxCell>
      </root>
    </mxGraphModel>
  </diagram>
</mxfile>
